# xmcd
#
# Track frame offsets:
#	150
#	5756
#	16344
#	32371
#	42181
#	52890
#	66491
#	78930
#	88182
#	101045
#	116945
#
# Disc length: 1800 seconds
#
# Revision: 1
# Processed by: cddbd v1.5.2PL0 Copyright (c) Steve Scherf et al.
# Submitted via: dBpowerAMP V4.0
#
DISCID=8907060b
DTITLE=Oskar Benas - Paganus
DYEAR=2013
DGENRE=Instrumental
TTITLE0=01 Llanto de chopo
TTITLE1=02 Paganus
TTITLE2=03 Cuatro Cuatros
TTITLE3=04 Ribera luna hiena
TTITLE4=05 Capicúa rapaz
TTITLE5=06 Puente rojo hacia el sur
TTITLE6=07 AnnAda existe
TTITLE7=08 Patu Chatk
TTITLE8=09 Aceite en la muñeca
TTITLE9=10 Art i choke
TTITLE10=11 Matahari dari mana
EXTD=Oskar Benas is an artist from the basque Spain, musicaly know for being playing with Fermin m¡Muguruza, Maika Makovski and many other bands as The Solanos or Trainsalpine Boys. "Paganus" is the instrumental side fo the album Shaffarí/Paganus from 2
EXTD=013.
EXTT0=
EXTT1=
EXTT2=
EXTT3=
EXTT4=
EXTT5=
EXTT6=
EXTT7=
EXTT8=
EXTT9=
EXTT10=
PLAYORDER=
